inDegrees=no
num_controls=7
num_derivatives=13
num_iterations=108
num_multipliers=7
num_parameters=0
num_slacks=7
num_states=26
objective=0.444534
objective_accelerations=0.058617
objective_balance=0.003420
objective_effort=0.023354
objective_height=0.353680
objective_ligament=0.005463
solver_duration=1525.662800
status=Solve_Succeeded
success=true
DataType=double
version=3
OpenSimVersion=4.5
endheader
time	/jointset/ground_pelvis/pelvis_tilt/value	/jointset/ground_pelvis/pelvis_tx/value	/jointset/ground_pelvis/pelvis_ty/value	/jointset/hip_l/hip_flexion_l/value	/jointset/hip_l/hip_adduction_l/value	/jointset/hip_l/hip_rotation_l/value	/jointset/back/lumbar_extension/value	/jointset/patellofemoral_l/patellar_flexion_l/value	/jointset/knee_l/knee_flexion_l/value	/jointset/knee_l/knee_adduction_l/value	/jointset/knee_l/knee_rotation_l/value	/jointset/ankle_l/ankle_angle_l/value	/jointset/subtalar_l/subtalar_angle_l/value	/jointset/ground_pelvis/pelvis_tilt/speed	/jointset/ground_pelvis/pelvis_tx/speed	/jointset/ground_pelvis/pelvis_ty/speed	/jointset/hip_l/hip_flexion_l/speed	/jointset/hip_l/hip_adduction_l/speed	/jointset/hip_l/hip_rotation_l/speed	/jointset/back/lumbar_extension/speed	/jointset/patellofemoral_l/patellar_flexion_l/speed	/jointset/knee_l/knee_flexion_l/speed	/jointset/knee_l/knee_adduction_l/speed	/jointset/knee_l/knee_rotation_l/speed	/jointset/ankle_l/ankle_angle_l/speed	/jointset/subtalar_l/subtalar_angle_l/speed	/forceset/tau_hip_flexion_l	/forceset/tau_hip_adduction_l	/forceset/tau_hip_rotation_l	/forceset/tau_knee_flexion_l	/forceset/tau_ankle_angle_l	/forceset/tau_subtalar_angle_l	/forceset/tau_lumbar_extension	lambda_cid13_p0	lambda_cid13_p1	lambda_cid13_p2	lambda_cid13_p3	lambda_cid13_p4	lambda_cid13_p5	lambda_cid14_p0	/jointset/ground_pelvis/pelvis_tilt/accel	/jointset/ground_pelvis/pelvis_tx/accel	/jointset/ground_pelvis/pelvis_ty/accel	/jointset/hip_l/hip_flexion_l/accel	/jointset/hip_l/hip_adduction_l/accel	/jointset/hip_l/hip_rotation_l/accel	/jointset/back/lumbar_extension/accel	/jointset/patellofemoral_l/patellar_flexion_l/accel	/jointset/knee_l/knee_flexion_l/accel	/jointset/knee_l/knee_adduction_l/accel	/jointset/knee_l/knee_rotation_l/accel	/jointset/ankle_l/ankle_angle_l/accel	/jointset/subtalar_l/subtalar_angle_l/accel	gamma_cid13_p0	gamma_cid13_p1	gamma_cid13_p2	gamma_cid13_p3	gamma_cid13_p4	gamma_cid13_p5	gamma_cid14_p0
0.5	-0.3437313990147533	-0.03826656855660418	0.7564606016438238	1.114424936445216	-0.4370363045517944	-0.2176623326742669	-0.2543612731101149	0.82376801752192	0.8237680175219749	-0.1229319287834011	-0.1585227301151529	0.1151592117154369	-0.0288845002377943	-0.7761060116845403	-0.2141292245549379	-0.5473204849124862	2.517613596508226	-0.2038412933377449	0.7527714542418322	-0.1156941644705564	2.03247192930919	2.032471929309424	0.1446400022305585	-0.08978636409103004	0.4691728090069086	0.007286951848672427	-0.1714508811370548	0.02752176486566995	-0.01140399603660947	-0.2184067035536823	0.0656772901890345	0.0386102362107333	0.1687974610720058	-11.65293747274049	-17.67836249586887	5.852428681517943	-6.035489991645121	-521.452073356553	-56.93395922109679	-24.34458229068092	0.8272587821213547	0.60854686203471	-0.4792355184095989	-1.37339733895382	0.7529386042071858	-0.230975290240115	1.084483541175565	-1.306515205495421	-1.306515205495431	0.09981033015733494	0.1869072618890879	-0.5615805468134069	0.5356036367424735	-5.986144718265867e-07	-3.385068832842775e-07	3.180257911297393e-06	1.980492288588334e-07	-6.885721585499636e-07	8.313337586027053e-08	-4.882582639633967e-07
0.51	-0.3514491516340936	-0.04037715812056032	0.7509646464025785	1.139527439296655	-0.4390382935817687	-0.2101445616364659	-0.2554651763584368	0.8440242714103521	0.8440242714103727	-0.1214852915891946	-0.1594105800910766	0.119821640698284	-0.02878688364689658	-0.7673282349256145	-0.2079691724227906	-0.551752182765612	2.502538067445288	-0.1965421835181818	0.7506807341088978	-0.1051248907962961	2.018509406455629	2.01850940645579	0.144680741494112	-0.08777820557343795	0.4632388779477437	0.01222338867842836	-0.1770612886661448	0.02814815000194614	-0.01145339491829285	-0.2211821835828451	0.06504886871132988	0.03898911184822095	0.1730913042705414	-12.05808480165776	-17.74018940886209	5.825983677582369	-5.943718255854407	-525.194218064368	-56.6148109419204	-23.40340532048036	0.9204017711846076	0.6227031353418477	-0.4075151160218016	-1.627056961718655	0.7201655737544984	-0.2138534960271805	1.037388440191781	-1.481439698639148	-1.481439698650171	-0.04473128428582149	0.2092252133777295	-0.6204021667984049	0.4703908437044144	-5.853418535474496e-07	-2.438287609543632e-07	3.228085984425675e-06	2.222406280845764e-07	-6.676373717281264e-07	1.698058290331435e-07	-4.82418987025699e-07
0.52	-0.3590756535561627	-0.04242555341388758	0.7454278985433505	1.164468701603115	-0.440966937832962	-0.2026508444242343	-0.2564645390380875	0.8641328362955788	0.8641328362955627	-0.1200384344041046	-0.1602780574684835	0.1244225098142737	-0.02864035726017884	-0.7578558722304339	-0.2016903704291657	-0.5554790085090465	2.485365487512154	-0.189172337581676	0.7479606891276817	-0.09478605073641487	2.002934128667956	2.002934128668043	0.1446840004080597	-0.08571184438850755	0.4568608356353641	0.01706891101267485	-0.1826716961952201	0.02877453513823045	-0.01150279380002865	-0.2239576636120026	0.06442044723362764	0.03936798748571992	0.1773851474690882	-12.46677289664886	-17.80232921501013	5.800656158663129	-5.886396161427894	-529.0171925620775	-56.3601546321409	-22.46399788122206	0.9661759693723238	0.6322968343301958	-0.33826109647132	-1.792807512992878	0.7670858275957303	-0.3568402598964646	1.038396818299745	-1.629066192318103	-1.629066192318106	0.09231426023617302	0.1985477953567468	-0.6504027974563669	0.5174207376405792	-5.695739710372838e-07	-1.331503521921078e-07	3.275875701446498e-06	2.532901716618354e-07	-6.499040414462245e-07	2.590232657513126e-07	-4.730130414439981e-07
0.53	-0.3666041905705215	-0.04441066931992423	0.7398574344099056	1.189228127203009	-0.4428214998079518	-0.1951870768579605	-0.2573617412351936	0.8840776932929628	0.884077693292927	-0.118591860169237	-0.1611243424906467	0.128957408103584	-0.02844579258990336	-0.747745248656953	-0.1953222663041609	-0.5584917349021516	2.46618480448884	-0.1817314770323184	0.7446900999517524	-0.08471285658395601	1.985774654597436	1.985774654597465	0.1446223015510834	-0.0835406939102166	0.4500455179222724	0.02182477388429496	-0.1880999016255759	0.02923662990964604	-0.01148776871318369	-0.2268617520271014	0.06388640773205946	0.03953786134499954	0.1814854573422444	-12.85112363244352	-17.77074867043655	5.752146917860386	-5.726884992762918	-532.8087978592831	-55.98093603560498	-21.52900871482607	1.049369870726757	0.6407027924685039	-0.2645940369794437	-2.031014187746667	0.7334525055963873	-0.327986040810019	0.9830105288569049	-1.798686831589246	-1.79868683159812	-0.05660178335054643	0.2277288075340768	-0.7080646060306736	0.4514078245386262	-5.498784808505919e-07	-2.731246630741554e-08	3.303206390433254e-06	2.813741576182858e-07	-6.285802996518181e-07	3.459980413013214e-07	-4.611943078181892e-07
0.54	-0.3740284484852666	-0.04633177706653427	0.7342604798872797	1.213785682874522	-0.4446014799100492	-0.1877591787423207	-0.2581599655277468	0.9038430957862059	0.9038430957861513	-0.1171461408878755	-0.1619486499813358	0.1334219595462043	-0.02820432153838848	-0.7370000523078405	-0.1888887385438444	-0.5607770863452286	2.444991501835684	-0.1742559630033365	0.7407867990010684	-0.07499046982597898	1.967043227840102	1.967043227840071	0.1445130097066666	-0.08131633809317296	0.4427914662973765	0.02645018726055085	-0.1935281070559196	0.02969872468106163	-0.01147274362630292	-0.2297658404422019	0.06335236823048997	0.03970773520427799	0.1855857672154134	-13.23823426668555	-17.73934451731346	5.704421393526785	-5.605168230977736	-536.6710444205532	-55.66296001968501	-20.60371776463181	1.093090524498653	0.6453815613925112	-0.1927861064656999	-2.195331438961279	0.7740165235205895	-0.4833826148474247	0.9682353394033906	-1.943456729681023	-1.943456729681039	0.08279566274808921	0.20918886310728	-0.7381495798171924	0.491330838567733	-5.25837552383488e-07	7.316994745741974e-08	3.307901559041892e-06	3.061771011006501e-07	-6.03284187673364e-07	4.304915747078335e-07	-4.467061065691117e-07
0.55	-0.3813422844834287	-0.04818829025836094	0.7286443206726072	1.238121593009504	-0.446306478380839	-0.1803731143766837	-0.2588627269640491	0.9234135137971248	0.9234135137970925	-0.1157017994173815	-0.1627502292810815	0.1378119017099904	-0.02791713312888994	-0.725666788483323	-0.1824088723323563	-0.5623303727266613	2.421865356817901	-0.1667416105592884	0.736327959021611	-0.06563523882767858	1.946791562301945	1.946791562301953	0.1443427372205685	-0.07899409356100473	0.4351328631997641	0.03096536063801991	-0.198784636235326	0.02986620829371664	-0.01138204129887432	-0.2327964911175926	0.06289366486248384	0.03979472240198671	0.1895132318543735	-13.60161207557825	-17.672549995071	5.64699870457807	-5.425443424174692	-540.4732513112207	-55.33907550779949	-19.6908755438871	1.168422092424845	0.6501072155671094	-0.1180602218601225	-2.420120167874377	0.7400170482461259	-0.4422307177320756	0.9081537710750592	-2.103255511434829	-2.103255511428962	-0.06871060933393464	0.245219610004621	-0.7892910835883562	0.4278823427542623	-4.976344912738196e-07	1.597227924418116e-07	3.277077410822076e-06	3.24458473327779e-07	-5.734465532359741e-07	5.071714030560947e-07	-4.29429588312171e-07
0.5600000000000001	-0.3885397922871455	-0.04997984117516471	0.7230163365305449	1.262216468867372	-0.4479363588385077	-0.1730346576164893	-0.2594741387321612	0.9427739683435511	0.9427739683435413	-0.1142595150527586	-0.1635282906631588	0.1421233427610295	-0.02758553863453313	-0.7137344134189437	-0.1758962835392664	-0.5631420718232151	2.396784646412618	-0.1592323603792732	0.7312652779126667	-0.05672053618811022	1.925050534941718	1.925050534941765	0.1441015885326642	-0.0766127545595152	0.4270912437479479	0.03533140423219964	-0.2040411654147179	0.03003369190637383	-0.01129133897144668	-0.2358271417929825	0.06243496149447712	0.03988170959969772	0.1934406964933477	-13.96731313461892	-17.60584693012528	5.590161859139299	-5.285587994481907	-544.3403065408152	-55.07270464514532	-18.79250508024458	1.212912772471038	0.6519260777128237	-0.04446864948994186	-2.586244516461027	0.772996070714013	-0.6041508407448083	0.8801296676569959	-2.241329094094978	-2.241329094095003	0.06862042238688652	0.2210077569715401	-0.8147528506579589	0.4615048819098647	-4.644368709930738e-07	2.29560154889672e-07	3.203630082408118e-06	3.349139600486259e-07	-5.381590918478617e-07	5.744747853344549e-07	-4.088070896457945e-07
0.5700000000000001	-0.3956152100848925	-0.05170620398825042	0.7173839346288605	1.28605118594989	-0.4494910872729991	-0.1657497224380604	-0.2599986199580044	0.9619097419734155	0.9619097419733996	-0.1128198495442411	-0.1642821631643301	0.1463525182020626	-0.02721090662102141	-0.7012568698749735	-0.1693800909625471	-0.5632135328114982	2.36984917339998	-0.1517175113230396	0.7256251258671275	-0.04826564297283387	1.901866197513698	1.901866197513722	0.1438151023174691	-0.07415783957504932	0.4186817663574758	0.03956591311893567	-0.2091295332547979	0.03007548937102703	-0.01111645158002795	-0.2388430546518148	0.06186411920355021	0.03982461016772803	0.1971815916974634	-14.36752467959959	-17.46313407081987	5.512763209814771	-5.001812636277762	-548.0819652844267	-54.72574081563183	-17.91014885211101	1.278946669358924	0.6509622305584563	0.03012789212098662	-2.793719852476295	0.7396598070840239	-0.5587795439172023	0.8146790496385874	-2.392605666395438	-2.392605666398762	-0.07963040062684429	0.2589553416277475	-0.8633081558719399	0.3996470569996419	-4.282958726929852e-07	3.019831683569936e-07	3.118869694647443e-06	3.442940394801587e-07	-5.00623320444998e-07	6.348895480071011e-07	-3.855003025375089e-07
0.58	-0.4025630981423993	-0.05336750559898755	0.7117545406604169	1.309607244070521	-0.4509708811201263	-0.1585241552115792	-0.2604412502714591	0.9808065483091511	0.9808065483091294	-0.1113835183493074	-0.1650112421211679	0.150495746274665	-0.02679488488565346	-0.688228465371048	-0.1628840430695526	-0.5625404851750413	2.3410528540349	-0.144245442906567	0.71939168752324	-0.04035035371053247	1.877257076116083	1.877257076116085	0.1434347258161091	-0.07165404569283781	0.4099017700617998	0.04360934860343824	-0.2142179010948717	0.03011728683568177	-0.01094156418860605	-0.2418589675106468	0.06129327691262332	0.03976751073576019	0.2009224869015851	-14.76999555009822	-17.31991737964978	5.435162666895464	-4.756018371886256	-551.8870037885524	-54.4317590752625	-17.04498240076374	1.3230849644621	0.647897140967822	0.1044330754580674	-2.958413786949264	0.7644399427618468	-0.7228081004144516	0.7722088770620172	-2.526285888013891	-2.526285888013875	0.04984236515393464	0.2307835365206652	-0.8888566316987492	0.4232902014631677	-3.883216379025904e-07	3.777735412915196e-07	3.019376020295697e-06	3.522735884883988e-07	-4.60159517395017e-07	6.863330851467245e-07	-3.586976979234817e-07
